<svg xmlns="http://www.w3.org/2000/svg" width="259.09" height="449.893" viewBox="0 0 2619.715 4548.97">
  <defs>
    <style>
      .cls-1 {
        fill: #fff;
        fill-rule: evenodd;
      }
    </style>
  </defs>
  <path id="べた塗り_1" data-name="べた塗り 1" class="cls-1" d="M1752,373c20.96,0.489,47.55,37.114,58,51,34.53,45.861,73.72,89.355,108,136,3.52,4.784,35.55,51.822,36,52,10.53,2.919,104.6,6.4,114,2,35.17-96.692,190.45-145.2,288-72,17.63,13.229,37.27,33.079,49,52,5.93,9.56,11.01,32.974,21,38,6.72-8.659,19.79-13.818,30-19,53.47-27.143,89.8,6.848,111,43,25.58,43.607,26.32,98.7,38,158q19.5,96.99,39,194,4.995,40.995,10,82h1c10.08-1.83,20.37-8.24,28-10h63c93.62,15.89,142.14,43.61,182,112,18.98,32.57,41.42,107.69,35,136q3,6.495,6,13c4.7,21.93-2.69,30.88,25,30,4.41-15.12,72.01-26.41,101-26v4c0.67-.33,1.33-0.67,2-1v-4c34.8-.47,59.17,9.86,84,17,122.5,35.23,216.25,151.65,152,306-43.73,105.05-128.63,191.59-214,256q-36.99,24.495-74,49c52.6,113.22-12.01,192.09-85,244,10.8,19.93,23.07,39.87,31,63q3,18.495,6,37,6,6.495,12,13c10.99,24.07,8.34,83.72,1,112-15.65,60.3-54,117.1-85,165q-67.5,130.98-135,262c-49.23,96.55-90.03,196.14-135,297-65.68,147.32-127.23,303.19-178,464-17.87,56.62-31.08,112.52-49,171-47.67,155.58-93.15,391.79-67,581,21.13,2.96,42.78,11.88,61,19,83.57,32.65,166.99,66.27,216,133,33.24,45.25,44.51,101.54,2,146q2.505,13.995,5,28c11.25,1.64,19.01,8.95,19,22-17.82,52.22-124.96,100.41-178,124-207.9,92.47-620.25,86.34-846,15-76.61-24.21-168.81-60.94-191-139,5.34-14.91,11.97-13.86,26-20,2.03-6.05,7.62-15.9,5-20-10.49-21.93-31.52-35.1-36-63-7.35-45.74,17.67-72.36,36-96,44.02-56.79,119.22-92.37,191-121q45-13.995,90-28c5.91-6.11,5.01-97.42,5-115-0.06-93.04-8.92-197.29-28-285-16.94-77.91-29.11-155.4-51-229-85.34-287.01-184.36-547.04-304-797-52.92-110.57-107.74-221.78-169-326-35.09-59.7-77.24-110.81-99-183-5.85-19.39-11.21-50.66-7-76q1.005-12,2-24c-52.4-16.78-103.8-78.56-121-132-7.354-22.85-11.67-65.87,1-87,15.76-26.29,39.91-28.33,72-39,1.75-16.67,2.91-32.44,8-45q-10.995-8.505-22-17c-18.03-14.4-36.15-38.91-46-61-6.843-15.34-11.492-32.76-15-51-16.888-87.8,40.66-163.6,87-193q25.995-12,52-24v-5c-7.12-15.57-18.41-29.07-25-46-7.66-19.7-7.96-40.91-12-65-4.86-28.96,22.98-98.23,22-100q-15.495-27.495-31-55c-18.06-30.58-31.93-64.42-53-92q-7-16.005-14-32l-50-88q-74.493-130.485-149-261-39-69.493-78-139c-6.342-18,4.728-35.727,14-42,45.39-30.71,80.836,69.013,95,93q72.492,126.987,145,254c16.47,27.95,31.83,55.75,48,83q10.995,19.005,22,38,6.495-4.005,13-8c3.49-4.2,15.4-69.61,13-79q-12.495-28.5-25-57L872,686,817,567c-6.385-16.673,2.365-34.938,12-42,48.933-35.866,81.887,76.338,94,104q64.494,137.986,129,276c18.66,42.279,43.66,114.41,71,147,12.9-1.61,22.04-6.42,28-15-1.49-37.173,32.19-56.633,50-79,16.77-21.066,38.69-60.043,68-67,26.1-6.193,59.01,6.868,79,12,68.42,17.56,127.92,39.181,182,71,14.78,8.694,79.17,56.24,91,54-1.2-53.643,8.67-104.775,38-128-27.65-37.434-56.01-71.9-73-121-7.04-20.352-10.26-42.817-14-66-5.52-34.226-1.01-78.774,5-107C1605.03,474.277,1663.76,441.541,1752,373Z" transform="translate(-734.125 -373)"/>
</svg>
