<svg xmlns="http://www.w3.org/2000/svg" width="512" height="768" viewBox="0 0 512 768">
  <defs>
    <style>
      .cls-1 {
        fill: #fff;
        fill-rule: evenodd;
      }
    </style>
  </defs>
  <path id="べた塗り_3" data-name="べた塗り 3" class="cls-1" d="M210.187,698.536c0.265-2.21,1.736-3.741,1.492-6.135l-1-1.161h-0.5l-1.824,1.659c-2.359-.38-10.62-11.607-9.617-15.255,0.555-2.015,5.189-5.314,3.482-8.29-0.58-.525-1.339-0.1-2.155-0.5-0.655-.317-1.571-1.5-2.322-1.989V666.2c0.8-1.194,1.935-2.7,1.658-4.477q-0.248-1.161-.5-2.322c0.535-1.982,2.479-3.351,3.15-5.8,0.374-1.363-.461-3.816.166-5.306,0.978-2.325,4.393-6.08,3.151-10.114-0.521-1.691-2.212-2.9-2.488-5.14,1.127-1.261.307-2.831,1-4.311l1.327-1.161c0.637-2.966-1.568-6.153-1.161-9.119l1.161-2.653c-2.412-1.5-1.03-2.832-1.493-5.306-3.955-.763-3.058-6.374-4.642-9.617-1.667-3.412-4.274-10.854-3.316-15.42a30.306,30.306,0,0,0,0-11.274l0.663-3.98c0.334-1.853-.426-2.188-1-2.984l0.5-.829c0.681-2.309-.781-5.724-1.824-6.8q0.247-1.74.5-3.481a2.883,2.883,0,0,0-1.658-.995c0.111-.277.221-0.553,0.332-0.829a2.545,2.545,0,0,0,.829-0.829c-2.456-2.584-4.012-4.109-4.477-8.125l1.492-.5q-0.165-.5-0.332-1l-4.476-1.327c-0.209-2.841,1.184-4.636,2.653-6.632q-0.332-1.492-.664-2.985c1.346-.377,2.865-2.337,3.317-3.481v-2.488c0.384-.695,1.218-1.068,1.658-1.989-0.219-1.639-1.034-2.3-1.824-3.316-2.925-.167-2.94.212-5.638-0.664-0.195-2.1.1-2.556-.829-3.813l-3.15-.332c-0.844-4.67-7.032-6.172-10.28-8.622-0.016-1.727.172-9.66,0.5-10.28a32.71,32.71,0,0,1,4.974-5.637l1.824-.829c1.609-2.047.681-14.319-.663-17.078s-6.287-1.874-8.456-3.98c-1.69-1.641-1.39-4.84-2.321-6.8-0.233-.489-0.993-0.735-1.327-1.326a14.071,14.071,0,0,1,3.151-5.472c-0.383-3.586-.371-4.095-1.99-6.8a11.338,11.338,0,0,1,3.316-2.819c0-.155,1.161-6.135,1.161-6.135l1.824-1.989c1.427-4.1.215-9.638,0.829-13.762q0.414-4.146.829-8.291c-0.891-3.61-3.021-7.929-3.98-11.44q-0.083-3.234-.166-6.467c-0.344-1.249-1.039-3.641-1.326-4.974-1.2-5.568,1.447-12.125.332-16.747-1.226-5.08-.825-10.813-2.156-16.083a118.311,118.311,0,0,1-3.15-22.218c-0.249-4.7,1.841-9.614,2.818-13.762,2.019-8.562,3.537-16.825,5.638-24.7q0.165-1.824.332-3.648l2.984-5.14c1.34-3.744.852-7.807,2.156-11.938,2.569-8.143,5.733-20.165,10.114-26.53q5.886-7.128,11.772-14.259c3.052-2.472,6.564-5.022,8.954-8.125l2.487-3.813c2.1-2.309,4.821-4.583,5.969-7.793,1.627-4.549-.215-8.5.829-13.43q1.493-3.481,2.984-6.964,0.332-5.388.664-10.778c0.835-4.281,1.739-9.705,2.321-13.928q-0.166-1.575-.332-3.15,0.084-4.394.166-8.788c-0.051-2.675,1.951-5.531,1-9.285-1.043-4.1-3.709-5.346-5.8-8.124q-1.41-2.819-2.819-5.638c-1.636-2.5-4.662-4.621-6.135-7.13q-0.5-1.575-1-3.15l-4.974-6.135c-1.181-2.288-1.718-3.694-2.984-5.8-1.582-2.634-6.3-6.859-7.462-9.617q-0.083-1.409-.166-2.819l-1.492-1.658-1.824-4.974V94.169L188.8,91.681c-1.261-2.385-1.14-5.108-2.156-7.461-1.484-3.439-4.955-4.716-3.813-10.943l3.482-3.814c5.407,2.9,9.534,8.7,13.762,12.933l15.42,15.42L219.8,100.3c2.278,1.742,4.465,3.815,6.8,5.638,3.067,2.4,5.4,6.461,8.788,8.456,3.693,2.172,10.447-.78,9.451-5.472-1.052-4.954-2.028-10.154-4.477-13.927-0.063-.143,0-4.31,0-4.311l0.5-.663c11.178,2.032,13.316,7.73,20.063,13.762,0.724,0.647.337,1.356,0.829,2.322,0.612,1.2,3.562,3.26,4.974,3.647,4.148,1.137,12.05-.369,14.923-0.994l4.145,0.165,2.487-1.989c0.847-1.248.079-2.716,0.663-4.477,0.546-1.644,2.619-6.831,5.306-5.969,5.529,2.652-.241,18.175,9.451,17.907,2-2.491,5.472-3.6,8.291-5.306l7.129-6.8c2.5-1.571,5.291-2.115,7.793-3.814,4.848-3.29,5.961-11.082,10.778-14.591,2.357-1.717,6.9-1.467,9.285-2.985,1.636,10.911-4.4,16.025-8.125,22.218-0.782,1.3-.515,3.314-0.994,4.643-0.376,1.04-1.469,1.512-1.99,2.321-0.452.7-.641,3.006-1,3.814-0.564,1.286-2,2.552-2.487,3.979-0.644,1.89-.628,3.506-1.658,4.974l-5.8,5.14a103.661,103.661,0,0,0-8.291,10.446c-1.737,2.615-4.81,4.363-6.466,7.3C309.154,147.53,308.984,156.5,310,159c1.135,2.791,5.065,4.875,3.813,9.451-1.256,4.595-5.109,7.547-6.3,11.772q-0.083,2.322-.166,4.643c-1.026,5.022-1.2,12.246-3.15,16.912-2.26,5.414-7.637,8.923-11.275,13.1-2.858,3.28-2.512,9.11-3.814,13.6l0.5,6.3q0.248,3.4.5,6.8l2.653,7.627c1.666,4.655,4.644,7.659,6.8,11.607q0.663,1.74,1.327,3.482l2.818,1.658c1.49,1.148,4.368,5.032,5.472,6.632l1.824,5.14,2.487,3.316q0.5,2.073,1,4.145a79.651,79.651,0,0,1,3.813,7.793c2,5.548,1.007,10.933,2.985,16.581,0.708,2.023,1.394,5.342,2.487,7.3l3.482,5.969v2.653a28.717,28.717,0,0,0,1.492,3.482c0.566,1.441.524,4.389,0.829,5.637,0.988,4.047-1.921,6.039-1,10.28a41.014,41.014,0,0,1,1,10.28q-0.082,2.736-.166,5.472a44.353,44.353,0,0,1-.165,14.425q0.165,3.648.331,7.3c-1.168,7.83-.171,17.533.829,24.539,0.472,3.305-1.238,8.146-.5,11.441l2.321,2.984q0.082,1.161.166,2.322,0.995,1.989,1.99,3.979c-4.4,4.041-.2,3.209-1.493,7.13-0.543,1.647-2.6,3.031-3.647,4.311,0.078,4.036-1.585,5.578-.829,9.451,0.191,0.98,1.018,6.421.663,7.793l-1.327,2.487c-0.533,1.5.625,4.74,0.995,5.969,1.212,4.026,6.065,5.172,7.959,8.622a10.822,10.822,0,0,0-2.156,4.145c5.653,6.5-6.662,5.6-10.943,7.627-1.6.758-3.2,2.663-4.311,3.979,1.052,6.05,10.489,2.661,7.959,13.6-0.647.059-1.24,0.2-2.321,0.331a3.339,3.339,0,0,0-2.985-1.492c-0.6.151-.339-0.006-0.663,0.332-1.8,2.115-.735,3.535-4.311,4.145-0.616,3.451-1.586,2.427-2.321,3.979-0.975,2.057.375,7.065-1,8.29l-2.487,1.824c0.018,2.345-1.482,5.447-1.161,6.633,0.39,1.444,1.411,2.18,1.492,4.311a7.118,7.118,0,0,0-1.99,2.321c0.386,1.859,1.47,2.816,1.824,4.145,0.43,1.611-.6,2.707.166,4.477,1.268,2.937,5.378,4.509,3.482,9.285a3.018,3.018,0,0,1-1.658,1.658l-4.477.166a18.856,18.856,0,0,0-7.461,4.311q0.165,3.648.332,7.3c-0.732,1.855-3.191,2.845-3.648,4.809q0.083,2.652.166,5.306a22.973,22.973,0,0,1-1.824,5.14l-1.824,1.658c-1.274,3.554-1.113,6.455-2.156,9.782q-0.745,1-1.492,1.99c-0.469,1.271.393,1.865,0.166,2.985-0.29,1.432-1.706,2.385-2.156,3.482-2.1,5.125,3.125,7.049,2.487,10.28a16.552,16.552,0,0,1-3.15,6.8c-1.5,1.719-5.584.6-3.813,4.808,0.859,1.274,3.152,1.782,3.482,3.482,0.731,3.768-3.565,4.936-4.643,6.964q-0.166,2.156-.332,4.311c-0.634,1.926-1.874,5.244-1.989,7.793q0.579,3.813,1.16,7.627c0.73,1.6,2.439,1.875,2.653,4.145a7.484,7.484,0,0,1-2.321,2.819c0.3,2.776.977,4.83,0.332,7.793-3.369,2.22-5.7.408-9.12,1.658-1.5.547-2.336,2.361-3.482,3.316-2.383,1.987-7.179,2.757-4.974,7.959,1.046,0.237,4.249.572,4.974,1.326a5.825,5.825,0,0,1-.166,3.151c-1.4,1.746-10.374,5.629-14.425,4.642-2.458-.6-6.848-0.874-8.788.5-0.859,3.311-2.077,5.269-1.326,9.285H210.187Z"/>
</svg>
