<svg xmlns="http://www.w3.org/2000/svg" width="512" height="768" viewBox="0 0 512 768">
  <defs>
    <style>
      .cls-1 {
        fill: #fff;
        fill-rule: evenodd;
      }
    </style>
  </defs>
  <path id="べた塗り_1" data-name="べた塗り 1" class="cls-1" d="M228.2,229.828v0.961h-0.8v0.961a14.5,14.5,0,0,0-3.684,3.844c-0.554,1.3.276,2.1,0.16,2.884-1.732,1.41-1.273,10.6.481,12.013l-0.641.32c0.343,1.637,1.219,2.156,1.6,3.524-2.687,1.223,1.647,9.6,2.563,11.373h0.8c0.057,3.848,3.167,9.3,6.727,10.572-0.053.107-.107,0.213-0.16,0.32l-0.8.16a1.053,1.053,0,0,0,.32.8,4.224,4.224,0,0,1,2.083-.641l-0.321,1.442,0.16,0.16c2.68-.056,6.566-1.116,9.291-0.32,9.3,2.717,18.594,7.3,30.754,6.407l11.213-2.883,12.494-2.4c7.084-1.787,15.461-4.321,22.905-5.926a28.076,28.076,0,0,1,11.853.16c1.47,0.439,4.084,2.343,6.087,1.762,2.262-.656,3.321-2.954,6.087-3.524,6.629-1.367,21.757,5.187,24.507,7.848,1.2-.194,1.679-1.071,2.884-0.64,3.526,1.554,6.2,8.892,6.407,14.256,2.027,0.5,1.639,1.165,2.563,2.723q0.88,1.12,1.762,2.242c0.991,3.422-1.895,5.562-2.243,7.849-0.266,1.747,1.848,1.927,1.282,4.325q-1.122,2.082-2.243,4.164l2.082,1.6c-0.022,3.156-2.592,3.642-4,5.446,0.04,4.848,1.713,9.8.8,15.538a181.568,181.568,0,0,0-1.922,18.26c-0.215,3.644,3.937,5.274,2.883,9.451-0.505,2-1.8,3.521-2.563,4.965l-0.8,3.2c-0.854,1.208-2.013,1.258-2.4,3.2-1.129,5.633,1.163,9.351,1.762,13.135l-0.8,3.364c0.28,2.139,1.273,4.845.641,7.688-2.877,1.978-6.234,4.182-7.368,7.529-1.522,4.49,3.336,8.269,4,10.091,0.81,2.2-.245,7.716-1.281,9.451a1.348,1.348,0,0,0-1.442.961c-0.5,1.718.314,4.762-.64,6.247-5.084-.716-3.31,5.137-4.325,9.29q-0.721,2.082-1.442,4.165c-0.3,2.51,1.018,5.214,1.282,7.368,0.154,1.265-.519,2.272,0,3.524L369,461.927a3.634,3.634,0,0,1-1.6,3.524c-2.271.723-4.411-.371-5.766,1.762l-0.16.16v2.243l-1.762,2.562q0.079,0.882.16,1.762c-0.451,1.12-2.631,3.781-2.883,4.646-0.6,2.05.36,4.293-.16,6.086l-1.923,3.524c-0.179,1.08.757,1.8,0.321,3.044l-1.442,2.082v2.563l-1.441,1.922q0.159,2.722.32,5.446-0.721.962-1.442,1.922,0.081,2,.16,4c-0.81,5.088-.584,7.076-2.883,10.572-7.776.031-3.973,13.855-6.567,18.58l-4.325,5.286c-0.993.639-1.519,0.188-2.082,1.282a43.582,43.582,0,0,1-1.442,4.164c-3.3.053-3.878,3.249-5.126,5.286-1.905-.116-1.953.1-3.043,0.961-2.026-.3-2.835-1.535-4.965-1.762-1.264,1.034-3.757,2.171-5.927,1.122l-4.325-4.806c-0.038-1.375.186-1.428,1.282-1.281-0.422-1.965-1.694-3.484-2.243-5.126-0.383-1.145.261-5.594,0.481-6.888l0.961-.8a2.085,2.085,0,0,0,1.922,0c-0.467-4.2-4.587-5.488-4.806-8.649,1.43-3.4,4.277-6.3,5.607-9.931l0.8-5.927c1.3-5.43,2.058-11.846,3.043-17.94v-7.528a15.326,15.326,0,0,0,.16-5.607c-0.666-3.161-2.784-4.051-3.524-6.086q-0.32-1.923-.641-3.845-0.96-1.2-1.922-2.4c-1.149-2.277-1.229-4.808-2.242-7.369l-2.243-4.164c-1.024-3.687-1.17-7.336-2.883-10.252-0.9-1.532-2.706-2.6-3.524-4.325-1.952-4.125-1.458-10.776-6.567-11.693-0.655-.117-3.643.258-5.126,0.161-0.473,1.994-2.038,1.557-3.524,2.4q0.48,0.882.961,1.762l-0.8.8-0.8-.32-0.32.32,1.121,1.762q-0.48.48-.961,0.961a22.481,22.481,0,0,1,3.2,3.524c-0.054.214-.107,0.427-0.16,0.641l-1.122.32a7.556,7.556,0,0,0,2.4,3.044q-0.32.4-.641,0.8a1.672,1.672,0,0,0-1.281.8c0.79,0.866.086,1.65,0.641,2.884-1.566.466-2.1,1.356-3.524,1.922a1.524,1.524,0,0,1-.481,1.441l1.762,1.6v0.16c-2.594,2.767-1.157,3.124-2.082,6.087l-0.961.481c0.354,0.817.546,0.671-.16,1.281l-0.321.641c0.188,1.134.674,1.274,1.282,1.922a7.67,7.67,0,0,1-1.6,2.082c0.511,1.212.355,4.092-.961,4.806l0.8,0.8c-0.652,1.339-1.56,1.818-.16,2.723-0.054.106-.107,0.213-0.161,0.32a2.48,2.48,0,0,0-1.762,1.6,4.6,4.6,0,0,1,.641,2.563,5.088,5.088,0,0,0-1.922,1.121q0.32,0.561.641,1.121a1.989,1.989,0,0,0-1.122.481c0.4,1.061.065,1.193,0.641,2.082l-0.48.961A6.166,6.166,0,0,0,273.7,488.2a2.133,2.133,0,0,1,.64,1.442,2.479,2.479,0,0,0-1.761.48c0.141,3.522.566,3.871-2.243,5.126a3.034,3.034,0,0,0,.32,1.762c-0.364.422-.763,0.71-1.121,1.121,0.063,1.762.89,4.608,0.16,5.607-1.5,2.151-2.271,1.384-2.883,4.485l-0.961.16a35.7,35.7,0,0,1-.8,8.329q0.24,1.763.481,3.524c-0.311,1-1.363,3.359-.961,4.966,0.343,1.375,1.187,3.077,1.121,4.965l-0.641,2.243,1.282,1.922-0.321,2.723a11.326,11.326,0,0,1,.321,5.286c-0.035.233,0,7.368,0,7.368,0.395,1.351,2.62,2.24,1.922,3.844v0.16a4.932,4.932,0,0,0-1.922.8c0.158,2.8,3.215,6.025,1.922,8.009-0.857,1.83-1.64,1.59-3.524,2.4q-0.081.72-.16,1.442c0.375,1.31,1.306,1.546,2.082,2.4l-0.32.481-2.563,1.121c0.126,1.51.341,1.6-.321,2.563-1.06-.061-1.984-0.146-2.4.48q-0.242.722-.481,1.442c-1.074-.111-1.339-0.32-2.082,0a20.9,20.9,0,0,1-2.083,4.325c-1.307-.084-1.357-0.516-2.4-0.8a13.3,13.3,0,0,0-1.442,3.844c-1.766-.269-1.652.226-2.883,0.641-1.037.35-1.2-.537-1.6-0.641-1.821-.466-2.335,2.049-2.563,3.364a3.744,3.744,0,0,1-2.4.481c-0.88-.434-0.86-1.083-1.442-1.762-1.422.707-1.664,1.791-3.844,1.922-1.623-1.306-2.7-3.326-4.165-4.806,0-.953-0.46-3.847-0.32-4.164,0.153-.349.834-0.553,0.961-1.121,0.8-3.59-.594-7.7.8-11.213a48.628,48.628,0,0,0,2.082-5.126c0.249-.964-0.567-1.082-0.481-1.6,0.2-1.2,1.869-2.806,2.243-4.324q0.319-2.643.641-5.286c-0.253-1.069-1.235-3.4-.641-5.286s1.973-4.223,2.563-6.087q1.281-6.647,2.563-13.295c0.309-1.789.81-10.2,0.32-12.173l-1.922-5.607c-0.53-1.9-.11-4.439-0.8-6.407-0.856-2.437-3.289-7.26-3.043-10.572,0.324-4.369,2.414-5.585,3.844-8.329a58.366,58.366,0,0,0,2.082-5.606c0.8-1.937-.39-3.91.321-6.247,0.326-1.073,1.312-3.151,1.6-4.165q-0.079-1.681-.16-3.364,0.721-2,1.442-4a83.544,83.544,0,0,0-.16-10.732c-0.42-.366.017-0.158-0.641-0.16,0.089-.934.213-1.628-0.641-1.442l-0.32-.32c0.086-.668-0.4-6.286-2.723-5.126a5.775,5.775,0,0,0-3.2,2.4l-0.48,7.528q0.88,0.961,1.762,1.922c0.668,1.909-.8,4.226-0.641,5.767l1.6,5.606q-0.321,1.041-.641,2.082c-0.344,1.593.7,1.736,0.32,3.2-0.942,3.6-3.689,4.942-6.407,6.567-0.955,5.211-1.575,10.269-1.922,14.577l-1.6.961c0.122,2.543-1.808,4.429-1.121,7.368,0.527,2.255,2.346,2.48,2.4,5.446l-3.044,2.723c-0.03,2.567,1.74,6.868,1.282,7.849,0.638,1.745,3.145,4.323,2.563,7.048l-2.884,4c0.387,1.9,1.516,2.7,1.6,4.966-1.353,1.045-1.417,2.588-2.563,4.164,0.932,5.481,3.067,10.275,3.524,16.018a7.85,7.85,0,0,1-5.606,3.524c-0.536,1.278,0,3.8-.481,5.767l-1.762,3.2c-0.238,1.14,1.235,2.136.641,3.684l-1.281,1.282a42.863,42.863,0,0,0,.961,6.247c0.934,0.207.695,0.335,1.121,0.961-0.053.16-.107,0.32-0.16,0.48-1.5.448-3.579-.055-4.485,0.321l-1.442,1.441c-0.393.255-5.914,2.315-6.247,2.4-3.084.819-7.14-.979-8.649-0.16-2.287.986-6.535,6.247-8.97,4.645a10.238,10.238,0,0,1-3.364-2.723q0.161-1.682.32-3.364l1.442-1.762c0.717-2.494-.937-2.329,1.281-4.8q-0.559-1.523-1.121-3.044c-1.105-4.247,5.814-10.92,6.888-14.576v-2.242c0.629-2.536,2.341-4.662,3.2-6.888l0.321-3.524c0.455-2.068,1.329-4.78,1.762-7.368a58.431,58.431,0,0,0-.161-17.3v-4.324l-1.441-4q0.16-2.082.32-4.164-0.319-1.442-.641-2.884,0.242-2.4.481-4.805-0.962-5.445-1.922-10.892c-1.164-6.408,3.014-11.275,1.762-17.62a33.875,33.875,0,0,0-1.282-4.165c-0.734-2.154.354-5.234-.48-7.528l-1.442-2.082V443.506c-0.518-3.064-1.7-5.7-2.4-8.489l-0.321-.16a2.845,2.845,0,0,0-1.6.961,8.666,8.666,0,0,1-2.4-2.4,6.266,6.266,0,0,0-1.282-6.407l-1.121.481q-0.16-.8-0.32-1.6c-1.712-.616-2.3-0.955-3.364.48l-0.481-.32c-0.446-1.114-1.755-4.1-1.6-4.645,3.146-2.09,4.114-13.373,2.723-17.78-2.947-.911-2.114-1.564-3.364-4.485-0.743-1.736-2.379-3.048-3.2-4.485-1.5-2.619-.488-12.214-0.8-14.9-0.415-3.557,3.182-7.43.481-10.892l1.281-2.883c-4.366-1.5-2.385-6.465-2.242-10.091a1.983,1.983,0,0,0-1.121.48c1.124-4.51-.274-8.154.48-13.3l-0.961-.48q0.161-1.522.32-3.044l-0.32-.16-0.641.321V339.07c0.641-1.46.041-2.2-.16-3.364,1.622-4.5-.63-8.129.16-12.814l-0.8-.16a7.627,7.627,0,0,0,.641-4.005l-0.641-.16c1.068-2.41-.026-4.523-0.8-6.728q0.32-1.041.64-2.082c0.021-.2-0.746-6.527-0.961-6.888-0.243-.409-2.325-5.093-1.6-5.766-0.432-.66-1.353-1.174-1.6-2.082-1.661-6.068-.368-14.189-1.282-19.7q0.081-.882.16-1.762a26.834,26.834,0,0,1-1.6-2.563q0.079-1.2.16-2.4c-0.479-1.276-1.7-3.136-2.083-4.645-0.46-1.8.314-3.2-.48-4.966-0.845-1.875-2.3-5.566-2.243-7.688l-0.64.16c0.115-1.554.54-3.87-.641-3.844a2.628,2.628,0,0,0,.641-1.922l-0.641.64v-2.883a1.7,1.7,0,0,0-1.121.16c0.423-1.414.165-1.509-.321-2.883h-1.121a1.549,1.549,0,0,0,.16-1.281,8.557,8.557,0,0,1-3.524-3.364l-0.8.32-0.64-1.762a2.865,2.865,0,0,1-1.762.481c-2.1-5.75-8.144-7.408-14.416-8.97l-3.524-.16c-5.962-2.034-5.415-7.356-8.65-11.373-2.04-2.533-4.264-4.941-5.126-8.65-0.688-2.962.625-4.652,1.442-6.887l3.684-1.762c5.081-1.385,10.046,3.4,14.416,4.324,3.236,0.684,5.1-.628,7.529.8,2.233,1.317,8.319,8.489,11.372,6.568,0.166-3.118,2.023-3.19,2.884-5.446h1.121q0.161-.561.32-1.122a1.457,1.457,0,0,0,1.121.16c0.344-1.24,1.031-1.538,1.282-2.883,0.78-4.185-4.109-11.015-3.044-16.178a3.369,3.369,0,0,1,2.243-.8c3.593,2.079,5.8,6,7.849,9.611,0.845,1.487.9,2.722,2.242,3.684,0.678-.775,4.158.237,6.407-1.922,1.4,0.813,2.19,1.028,3.364,1.6a31.863,31.863,0,0,1,3.844-.481q-0.159.561-.32,1.121c1.279-.357,2.747-0.206,4.485-0.64-0.053.213-.107,0.427-0.16,0.64l0.961,0.161,1.121-.8a0.992,0.992,0,0,0,.8.48l0.8-1.121,0.481,0.481c3.088-2.474,2.617-10.429,6.567-13.776a9.447,9.447,0,0,1,4,1.6c-0.088,4.411-.778,9.014-0.8,14.256l3.364,3.2,0.961-.48a4.789,4.789,0,0,0,1.762,1.922,1.269,1.269,0,0,1,.961-0.32,5.055,5.055,0,0,0,1.282,2.883c4.212-.9,5.558-5.722,8.009-8.49,2.284-2.579,5.559-3.25,9.13-4.645,5.332-2.083,10.272-11,18.9-7.688l2.242,4c1.907,7.372-3.427,11.1-5.606,15.7-2.268,4.785-3.186,9.594-7.368,12.333-4.6,3.015-10.965,4.05-14.576,8.009q-0.321,1.6-.641,3.2l-1.922,2.563h-0.8Zm-62.149,13.935c0.053,0.107.106,0.214,0.16,0.321C166.161,243.977,166.108,243.87,166.055,243.763Zm15.217,82.813v0Z"/>
</svg>
